<svg xmlns="http://www.w3.org/2000/svg" viewBox="0 0 1040 520" width="1040" height="520">
  <defs>
    <marker id="arrowA" markerWidth="10" markerHeight="7" refX="9" refY="3.5" orient="auto">
      <polygon points="0 0, 10 3.5, 0 7" fill="#c9c5b6"/>
    </marker>
    <marker id="arrowB" markerWidth="10" markerHeight="7" refX="9" refY="3.5" orient="auto">
      <polygon points="0 0, 10 3.5, 0 7" fill="#6fd1b4"/>
    </marker>
    <marker id="arrowC" markerWidth="10" markerHeight="7" refX="9" refY="3.5" orient="auto">
      <polygon points="0 0, 10 3.5, 0 7" fill="#c9c5b6"/>
    </marker>
    <marker id="arrowE" markerWidth="10" markerHeight="7" refX="9" refY="3.5" orient="auto">
      <polygon points="0 0, 10 3.5, 0 7" fill="#c9c5b6"/>
    </marker>
    <marker id="arrowF" markerWidth="10" markerHeight="7" refX="9" refY="3.5" orient="auto">
      <polygon points="0 0, 10 3.5, 0 7" fill="#8b8899"/>
    </marker>
    <marker id="arrowG" markerWidth="10" markerHeight="7" refX="9" refY="3.5" orient="auto">
      <polygon points="0 0, 10 3.5, 0 7" fill="#e6a562"/>
    </marker>
    <marker id="arrowH" markerWidth="10" markerHeight="7" refX="9" refY="3.5" orient="auto">
      <polygon points="0 0, 10 3.5, 0 7" fill="#8b8899"/>
    </marker>
    <filter id="editorialGrain" x="0" y="0" width="100%" height="100%">
      <feTurbulence type="fractalNoise" baseFrequency="0.9" numOctaves="2" stitchTiles="stitch"/>
      <feColorMatrix values="0 0 0 0 1  0 0 0 0 1  0 0 0 0 1  0 0 0 0.08 0"/>
    </filter>
    <radialGradient id="editorialTopGlow" cx="50%" cy="0%" r="80%">
      <stop offset="0%" stop-color="#e6a562" stop-opacity="0.12"/>
      <stop offset="100%" stop-color="#e6a562" stop-opacity="0"/>
    </radialGradient>
    <style>
    text { font-family: 'Inter', 'Noto Sans', 'Helvetica Neue', 'DejaVu Sans', sans-serif; }
    .title { font-size: 46px; font-weight: 700; fill: #f5efe0; font-family: 'Playfair Display', 'Noto Serif Display', 'DejaVu Serif', Georgia, serif; }
    .subtitle { font-size: 12px; font-weight: 500; fill: #e6a562; letter-spacing: 0.3em; text-transform: uppercase; }
    .section { font-size: 13px; font-weight: 700; fill: #f5efe0; letter-spacing: 1.4px; }
    .section-sub { font-size: 12px; font-weight: 500; fill: #b5b3a8; }
    .node-title { font-size: 18px; font-weight: 700; fill: #f5efe0; }
    .node-sub { font-size: 12px; font-weight: 500; fill: #d4cfbf; }
    .node-type { font-size: 10px; font-weight: 700; fill: #b5b3a8; letter-spacing: 0.08em; }
    .arrow-label { font-size: 12px; font-weight: 600; fill: #c9c5b6; }
    .legend { font-size: 12px; font-weight: 500; fill: #d4cfbf; }
    .footnote { font-size: 12px; font-weight: 500; fill: #b5b3a8; }
    </style>
  </defs>
  <rect width="1040.0" height="520.0" fill="#15151e"/>
  <rect width="1040.0" height="286.0" fill="url(#editorialTopGlow)"/>
  <rect width="1040.0" height="520.0" filter="url(#editorialGrain)" opacity="0.6"/>
  <text x="520.0" y="56" text-anchor="middle" class="title">Build Path</text>
  <text x="520.0" y="82" text-anchor="middle" class="subtitle">Five parts · Part 1 stands alone · everything else is optional</text>
  <path d="M 260.0,262.0 L 280.4,262.0 L 379.6,162.0 L 400.0,162.0" fill="none" stroke="#c9c5b6" stroke-width="1.6" marker-end="url(#arrowA)"/>
  <path d="M 590.0,162.0 L 720.0,162.0" fill="none" stroke="#c9c5b6" stroke-width="1.6" marker-end="url(#arrowA)"/>
  <path d="M 260.0,262.0 L 280.4,262.0 L 379.6,362.0 L 400.0,362.0" fill="none" stroke="#6fd1b4" stroke-width="1.6" marker-end="url(#arrowB)"/>
  <path d="M 590.0,362.0 L 720.0,362.0" fill="none" stroke="#6fd1b4" stroke-width="1.6" marker-end="url(#arrowB)"/>
  <rect x="70.0" y="220.0" width="190.0" height="84.0" rx="8.0" fill="#24222f" stroke="#e6a562" stroke-width="2.0"/>
  <rect x="76.0" y="226.0" width="178.0" height="72.0" rx="5.0" fill="none" stroke="#e6a562" stroke-width="1.2" opacity="0.65"/>
  <text x="165.0" y="238.0" text-anchor="middle" class="node-type">PART 1 · START HERE</text>
  <text x="165.0" y="268.0" text-anchor="middle" class="node-title">Martha Tent</text>
  <text x="165.0" y="290.0" text-anchor="middle" class="node-sub">~$250</text>
  <rect x="400.0" y="120.0" width="190.0" height="84.0" rx="8.0" fill="#24222f" stroke="rgba(245,239,224,0.18)" stroke-width="1.8"/>
  <text x="495.0" y="138.0" text-anchor="middle" class="node-type">PART 2 · OPTIONAL</text>
  <text x="495.0" y="168.0" text-anchor="middle" class="node-title">DIY Controller</text>
  <text x="495.0" y="190.0" text-anchor="middle" class="node-sub">~$290–360</text>
  <rect x="720.0" y="120.0" width="190.0" height="84.0" rx="8.0" fill="#24222f" stroke="rgba(245,239,224,0.18)" stroke-width="1.8"/>
  <text x="815.0" y="138.0" text-anchor="middle" class="node-type">PART 3 · OPTIONAL</text>
  <text x="815.0" y="168.0" text-anchor="middle" class="node-title">HA Monitoring</text>
  <text x="815.0" y="190.0" text-anchor="middle" class="node-sub">history · alerts</text>
  <rect x="400.0" y="320.0" width="190.0" height="84.0" rx="8.0" fill="#24222f" stroke="#6fd1b4" stroke-width="1.8"/>
  <text x="495.0" y="338.0" text-anchor="middle" class="node-type">PART 4</text>
  <text x="495.0" y="368.0" text-anchor="middle" class="node-title">Inoculating</text>
  <text x="495.0" y="390.0" text-anchor="middle" class="node-sub">strains · substrate</text>
  <rect x="720.0" y="320.0" width="190.0" height="84.0" rx="8.0" fill="#24222f" stroke="#6fd1b4" stroke-width="1.8"/>
  <text x="815.0" y="338.0" text-anchor="middle" class="node-type">PART 5</text>
  <text x="815.0" y="368.0" text-anchor="middle" class="node-title">Growing</text>
  <text x="815.0" y="390.0" text-anchor="middle" class="node-sub">fruiting · yield</text>
  <line x1="60.0" y1="450.0" x2="90.0" y2="450.0" stroke="#c9c5b6" stroke-width="1.6" marker-end="url(#arrowA)"/>
  <text x="100.0" y="454.0" class="legend">Automation track</text>
  <line x1="60.0" y1="472.0" x2="90.0" y2="472.0" stroke="#6fd1b4" stroke-width="1.6" marker-end="url(#arrowB)"/>
  <text x="100.0" y="476.0" class="legend">Biology track</text>
</svg>